/* XPM */
static char *_576595402111[] = {
/* columns rows colors chars-per-pixel */
"40 40 256 2 ",
"   c #74FE73",
".  c #F89A7C",
"X  c #FEA57A",
"o  c #FAB978",
"O  c #87FF7A",
"+  c #9BFE7D",
"@  c #97FC7B",
"#  c #96FC6A",
"$  c #B5FD65",
"%  c #A7FE7A",
"&  c #B8FE78",
"*  c #A1F36D",
"=  c #F6D366",
"-  c #FCC57C",
";  c #FCD878",
":  c #F8C86B",
">  c #CDFF6C",
",  c #CEFF75",
"<  c #C3FF7B",
"1  c #C7FF78",
"2  c #DDFE72",
"3  c #DCFF7D",
"4  c #D6FC79",
"5  c #DFFF6E",
"6  c #EBE57C",
"7  c #F9E776",
"8  c #E3FF7B",
"9  c #ECFA78",
"0  c #FAF978",
"q  c #EFF86C",
"w  c #E1D369",
"e  c #BC78DB",
"r  c #A77FFF",
"t  c #BB7AFA",
"y  c #CD7CD6",
"u  c #E87EC8",
"i  c #C77BFA",
"p  c #DA7FF5",
"a  c #EF7BE8",
"s  c #76FF88",
"d  c #78FF95",
"f  c #69FA90",
"g  c #7DFFA6",
"h  c #7DFEB3",
"j  c #7BFFBE",
"k  c #7898F6",
"l  c #7295E6",
"z  c #7AA5FB",
"x  c #7BB6FB",
"c  c #73AFE2",
"v  c #7BFFC8",
"b  c #7DFFDB",
"n  c #5DC2FF",
"m  c #7CC5FB",
"M  c #78D7FF",
"N  c #70D1F1",
"B  c #7CE5E7",
"V  c #7CFAE5",
"C  c #78EAFF",
"Z  c #79F9FD",
"A  c #BA8FBD",
"S  c #FD948C",
"D  c #FD9885",
"F  c #FF8D96",
"G  c #F99C95",
"H  c #FD8D8C",
"J  c #FEA989",
"K  c #F9B788",
"L  c #ECA398",
"P  c #FBA796",
"I  c #FDBB95",
"U  c #EBBC8C",
"Y  c #D595B6",
"T  c #EE8FAA",
"R  c #EC99AC",
"E  c #FA98AA",
"W  c #FA8AB4",
"Q  c #E799B6",
"!  c #FA97B6",
"~  c #F589AF",
"^  c #D1ACB1",
"/  c #FCAAA7",
"(  c #FABAA9",
")  c #E5A8B7",
"_  c #FDA4B3",
"`  c #E2B6B3",
"'  c #EFB3AA",
"]  c #CFA596",
"[  c #84FE84",
"{  c #85FF8C",
"}  c #8CFE8D",
"|  c #8BFD83",
" . c #94FD85",
".. c #9CFE84",
"X. c #94FC8B",
"o. c #9BFC8B",
"O. c #98F589",
"+. c #85FF94",
"@. c #8DFE94",
"#. c #86FE9C",
"$. c #8CFD9C",
"%. c #8BF699",
"&. c #94FD93",
"*. c #9EFE92",
"=. c #93FC9B",
"-. c #96F699",
";. c #97EE95",
":. c #A2FF84",
">. c #A9FE84",
",. c #A2FC8B",
"<. c #ACF888",
"1. c #B4FD82",
"2. c #BAFF85",
"3. c #B3FE8D",
"4. c #BBFE8A",
"5. c #B7F488",
"6. c #ACFE95",
"7. c #ACFE9C",
"8. c #A4F895",
"9. c #B4FE94",
"0. c #B5FD9C",
"q. c #BBFB97",
"w. c #B5EA92",
"e. c #85FFA3",
"r. c #8BFDA3",
"t. c #85FDAB",
"y. c #8AFEAB",
"u. c #8CF6AD",
"i. c #93FCA3",
"p. c #9CFDA2",
"a. c #9EF5A9",
"s. c #83FFB3",
"d. c #8AFEB3",
"f. c #84FFBB",
"g. c #8DFBBC",
"h. c #93FABB",
"j. c #99F7B7",
"k. c #AAFAA6",
"l. c #B7FCA5",
"z. c #A6EFAE",
"x. c #FFCC84",
"c. c #FECC8B",
"v. c #FCC588",
"b. c #EBDA8C",
"n. c #FDD285",
"m. c #FED48B",
"M. c #FADA8A",
"N. c #E8C594",
"B. c #FDC897",
"V. c #F9D798",
"C. c #EFD390",
"Z. c #C4FE83",
"A. c #C3FE8B",
"S. c #CCFE8B",
"D. c #CCFD85",
"F. c #D5FC83",
"G. c #D3FF8B",
"H. c #DBFD88",
"J. c #CDFF93",
"K. c #C4FE9B",
"L. c #C7FB96",
"P. c #D4FE92",
"I. c #DBFE93",
"U. c #DCFD9A",
"Y. c #D6F799",
"T. c #D3EB8E",
"R. c #FEE583",
"E. c #FBE98A",
"W. c #E4FC8E",
"Q. c #EDFD8C",
"!. c #EAF986",
"~. c #F7FA87",
"^. c #E9E59A",
"/. c #F4ED94",
"(. c #FAE798",
"). c #E4FD93",
"_. c #EBFC93",
"`. c #E3FE99",
"'. c #EAF99A",
"]. c #F7F796",
"[. c #EDEF81",
"{. c #FCC9A6",
"}. c #EBC7B5",
"|. c #F8C7B8",
" X c #EBD7A8",
".X c #C7FAA3",
"XX c #D3F4A3",
"oX c #FDE9A9",
"OX c #E9FAA6",
"+X c #F7F6A3",
"@X c #ECEFAD",
"#X c #8D91DB",
"$X c #B290D2",
"%X c #9589E5",
"&X c #9A8AFB",
"*X c #899BFC",
"=X c #969CFC",
"-X c #9094F7",
";X c #AA87FB",
":X c #B889FC",
">X c #AF90F2",
",X c #89A7FC",
"<X c #94A5FB",
"1X c #85B6FB",
"2X c #96B9FF",
"3X c #80AFE7",
"4X c #A3ACFD",
"5X c #CF8BC1",
"6X c #D899CB",
"7X c #C989D7",
"8X c #D586D5",
"9X c #D093CF",
"0X c #FD88C9",
"qX c #E78AD3",
"wX c #F989D7",
"eX c #EB93C7",
"rX c #D5A8C7",
"tX c #ECA8C9",
"yX c #C98AEA",
"uX c #D884E5",
"iX c #C884FF",
"pX c #C688FB",
"aX c #D281FF",
"sX c #CA93E8",
"dX c #E888F9",
"fX c #EB8AE8",
"gX c #E6A6E2",
"hX c #84FEC3",
"jX c #84FDCC",
"kX c #8AFCC5",
"lX c #97F8C8",
"zX c #9AECD8",
"xX c #8CFCD4",
"cX c #86FCD6",
"vX c #91F8D6",
"bX c #91EDCF",
"nX c #A6F4CE",
"mX c #89DCE4",
"MX c #86C7FB",
"NX c #93C9FF",
"BX c #87DCFC",
"VX c #90D1EE",
"CX c #A1C7FF",
"ZX c #ACDEFF",
"AX c #89E8E9",
"SX c #8DFCE2",
"DX c #85FEEC",
"FX c #88F7E8",
"GX c #95F9E5",
"HX c #87E9FA",
"JX c #96E8F7",
"KX c #88F7FA",
"LX c #94FAF7",
"PX c #9EE2EF",
"IX c #A6E2FF",
"UX c #A9EEF4",
/* pixels */
"b FX4X>X7XY  X].1 & & & > 8 Q.~.~.0 0 0 M.N.^ $Xc 2XIXUXIXMXz -X:Xi t :X*Xx B DX",
"KXHX2X>X7X`  X'.Z.& & Z.4 !.Q.'.P.P.~.].oX{.) $X#X<X2X1X<X%X>XsXrXtXgXsX>X%X2XZX",
"M x <X%XA ` ^.W.A.q.L.P.H.Q.Q.)..Xl.L.T./.(.V.}.^ $X$X$X$XrX` N.6 6 {.` 5Xy ;X:X",
"=X=X:X7XR B.].~.Y.Y.U.'.Q.~.Q.H.Z.>.O.X.X.6.4.T.n.U L L }.@XL.$ D.Z.H.^.|.tX7Xe ",
"y y qXW K n.R.0 '.'.'.].~.9 3 D.*  .d.jXb v i.<.F.Q.].^.XXz.i.t.v bXa..XXX X^ ] ",
"T E P / v.R.9 4 `.U.Q.!.q 2 A.6.$.v DXKXHXHXFXlXp.8.,.X.g.vXV N n n B bXl.T.T.^.",
"V.(.(./.W.I.K.9.k.9.< > > < 7.h.xXxXFXAXHXJXLXGXh d f f h.LXBXx k z x BXbXz.XXOX",
"$ & & <.+ } d d d } % $ $ >.j.bXzXbXlXh.g.g.j h t.i.*.&.k.lXVXc %X%Xz MXLXUXz.w.",
"kXkXjXxXxXvXSXGXvXSXxXkXh d s s d e.e.y.r.%.X.,.:.3.7.k.g.xXV B c k k *X2XCXZXZX",
"mXmXmXmXAXAXAXHXHXAXGXxXg.y.#.+.{ +.&.*.7.0.A.D.H.G.S.q.k.j.hXAXVX1Xk k *X,X2X2X",
"1X1X1Xm m MXM HXHXKXKXGXxXh.d.=.o.+ >.2.G.).~.~.~.7 7 _.XX8.a.nXPXNX1Xz l l *X=X",
",X1Xx 1XMXM HXHXKXKXKXGXxXlXu.%.o.% 1.D.'.~.E.7 : : ; E.'.Y.9.z.nXJXBXMXz z k ,X",
"MXNXBXBXHXKXKXDXDXDXcXcXhXd.e.+.*.:.3.S._.].E.m.o o - - /.OXK.8.h.xXFXHXM m MXNX",
"HXHXFXSXvXkXf.f.f.s.s.s.t.t.#.#.} ,.3.J.).].M.c.v.I K U C.OX`.5.-.t.hXcXDXHXHXJX",
"jXjXhXd.y.r.=.=.p.i.=.$.e.e.e.$.o.9.L.P._./.M.x.c.I K K n.E.Q.H.1.o.$.d.jXcXxXvX",
"f.f.y.$.*.,.9.0.0.7.-.a.i.e.y.-.6.L.P.).Q.[.; - K J K B.M.7 7 ~.F.4.o.$.t.s.g.lX",
"f   | 9.I.Q.~.0 9 8 Z.% O O O @ Z.4 9 ; v.P E W ! P o : = = /./._.H.2.+ | [ #.y.",
"@.@ 5.'.V.B.B.I N.N.C./.!.W.I.'./.V.N.K G W 0XwXeX! L J o - v.V./.W.P.3.X.{ $.y.",
"%.O.Y.oX{._ qX7X8XeX_ I B.M.(.oX( ! T Q 8XuXp dXp wX0XG P J P I B.E.`.L.,.@.e.y.",
"f +.K.@X}.6X:Xr ;X:XQ P K - m.{._ W u p aXpXi aXdXfX0X~ H S S J o n./.U.9.&.$.y.",
"f d K.@X` 9X;X&X;X;X5XL K ; E.V.P ~ qXyXpX:XpXpX8XeXW F H D D X X n./.U.q.O.=.i.",
"$.*.Y.oX' Y sXyX>X7X) |.V.(.].+XV.' Y 7XsXpXsX6X) / {.B.B.V.n.x.c.E.].U.3.o.&.-.",
",.<.XXoX{.L R Q ) ` }.@XU.G.S.G.Q.C.` 6X8XqXQ ' B.E./.Q.'.`.`.)./._.`.S.1...8.8.",
"@ ,..XOXoXN.N.U V.@XK.6. .O   # !.E.( tXwX0XE I E.9 > & % :.:.4.I.W.S.2.% ..,.<.",
";.;.4.1 2 8 3 G.l.z.zXFXDXV DXGXz.L.'.7 = = = ~.T.9.=.e.r.r.-.O.,.:.,...| } =.i.",
"t.=.o.1.< 4 F.J.l.z.zXVXN c VXPXz.k.K.Y.6 [.W.`.0.p.t.h h f.d.i.X. . .} | +.r.i.",
"j h +.X.>.& 2.9.z.nXzXVXl l =XCXbXd.p.0.L.P.K.0.p.t.j v v jXhXd.%.} } { { +.r.i.",
"j s.#.o.>.2.2.3.;.j.zXVXMX1X1XNXFXh e.&.7.0.,.X.r.h j v v hXhXd.#.$.#.+.+.+.r.i.",
"#.@.*.9.A.G.G.L.7.k.kXxXB HXHXHXcXf.#.&.o.:... .} e.t.s.d.u.i.=.=.$.@.@.} } =.-.",
"O.<.4.I.Q.Q.Q.W.P.0.p.t.v V V V cXg.r.+. .+ @ ..| @.=.r.=.&.O.o.*.*.*.o. . .O.O.",
"& D._./.E.m.x.n.(.'..X8.y.t.hXhXhXg.t.$.[ O O  .| } @.&.X. .:.>.6.9.3.>.% :.<.5.",
"S.U.+X(.v.X . X v.V.@X.X8.=.e.s.jXxXhXt.+.{ [ [ [ { @.&.X.o...3.4.A.A.4.1.& 4.4.",
"oX(.m.v.J . H S K b.!., % O.u.xXDXKXKXKXDXjXs.#.[ O X.6.q.L.S.3 5 5 T..Xq.2.& 1 ",
"(.n.- o . . S G K n.[.4 & X.d.cXLXHXBXMXVXmXvXkXt.&.9.J.H.8 9 ~.9 3 P.J.4 2 2 8 ",
"B.o X X D D S G J - R.!.4.*.f.cXFXBX3X,X*X,XVXGXu.k.J.[.7 : ; R.Q.Q.Q.~.0 0 0 R.",
"E E T T T E E G J x.R.~.J.8.y.jXb mX1Xz x MXAXlXz.L.V.B.P S J N.oX].E.R.; x.( ( ",
"uXuXp fXdXfXtX/ I n.E.~.I.3.X.$.j.vXHXM C Z f.,.F.b./ 0Xa a 8XtX( B.c.I / ! qXfX",
"%X;X;Xi iXfXeX/ V.E.~.Q.H.A.1.>.6.a.cXV V xX7.A.w ] 5Xi i i :XsXeXE E ! qXuXi t ",
"m x *X;Xt y Q B.E.9 3 F.G.G.F.F.& 5.o.7.0.XX X}.^ $X-X,X,X*X&Xr yXuXyX>X;X&X=X4X",
"Z Z NX=X$X5X' V.~.8 , < D.I._./.I.F., q 0 m._ 0Xi =XVXZ Z M <X;XiXiX:X-Xk ,XMXPX"
};
