/* XPM */
static char *_576595327114[] = {
/* columns rows colors chars-per-pixel */
"40 40 256 2 ",
"   c #170105",
".  c #0B0005",
"X  c #230100",
"o  c #2B0101",
"O  c #290A00",
"+  c #330001",
"@  c #3C0000",
"#  c #37010D",
"$  c #350312",
"%  c #430000",
"&  c #4D0000",
"*  c #470607",
"=  c #540001",
"-  c #5C0101",
";  c #570507",
":  c #560917",
">  c #571213",
",  c #630000",
"<  c #6C0000",
"1  c #680A03",
"2  c #730000",
"3  c #7B0101",
"4  c #7B0806",
"5  c #691702",
"6  c #761701",
"7  c #6C0219",
"8  c #701818",
"9  c #72112A",
"0  c #7C340E",
"q  c #840100",
"w  c #8B0100",
"e  c #880609",
"r  c #930100",
"t  c #9C0100",
"y  c #930B02",
"u  c #9A0D00",
"i  c #98060B",
"p  c #851803",
"a  c #941500",
"s  c #991801",
"d  c #890514",
"f  c #94031C",
"g  c #991812",
"h  c #A40400",
"j  c #AA0400",
"k  c #A30C00",
"l  c #A80809",
"z  c #B40300",
"x  c #BA0200",
"c  c #B60A05",
"v  c #AC1301",
"b  c #A61703",
"n  c #BC1400",
"m  c #BB1C00",
"M  c #B41603",
"N  c #B91A17",
"B  c #A21018",
"V  c #882500",
"C  c #942601",
"Z  c #9D3B01",
"A  c #99360F",
"S  c #A62703",
"D  c #B72805",
"F  c #A73701",
"G  c #BB3B00",
"H  c #B73601",
"J  c #B62617",
"K  c #B33816",
"L  c #8F052C",
"P  c #B21222",
"I  c #872727",
"U  c #B53328",
"Y  c #C30C01",
"T  c #C70301",
"R  c #D50602",
"E  c #C41D00",
"W  c #C81703",
"Q  c #D51900",
"!  c #D70515",
"~  c #CB0018",
"^  c #E41208",
"/  c #C52400",
"(  c #C42B00",
")  c #CC2901",
"_  c #D82703",
"`  c #C43500",
"'  c #CC3300",
"]  c #C33D01",
"[  c #CC3B00",
"{  c #C3340C",
"}  c #DB3300",
"|  c #D73A03",
" . c #D62713",
".. c #C63613",
"X. c #D73C14",
"o. c #CC2512",
"O. c #E92504",
"+. c #E63B04",
"@. c #E03C11",
"#. c #F52B0B",
"$. c #C83525",
"%. c #C50824",
"&. c #AA4801",
"*. c #B44500",
"=. c #BC4400",
"-. c #B94B00",
";. c #B85702",
":. c #B45214",
">. c #BD6500",
",. c #B67A00",
"<. c #C44301",
"1. c #CD4B00",
"2. c #C94502",
"3. c #D24300",
"4. c #DA4401",
"5. c #D44D01",
"6. c #D84707",
"7. c #CE5C00",
"8. c #C75603",
"9. c #D45300",
"0. c #DC5501",
"q. c #D45C00",
"w. c #DD5B01",
"e. c #DA5A0B",
"r. c #C95616",
"t. c #D05217",
"y. c #E54801",
"u. c #E95803",
"i. c #F45B09",
"p. c #E74A16",
"a. c #F54919",
"s. c #E65913",
"d. c #F55A15",
"f. c #F24206",
"g. c #CB6400",
"h. c #C76902",
"j. c #D36300",
"k. c #D46B00",
"l. c #DC6803",
"z. c #C57300",
"x. c #CA7400",
"c. c #C97E00",
"v. c #DE7500",
"b. c #D37B00",
"n. c #D57401",
"m. c #DA6617",
"M. c #DA7716",
"N. c #C76A19",
"B. c #E36502",
"V. c #E46B01",
"C. c #ED6D01",
"Z. c #E96608",
"A. c #F46B01",
"S. c #F66707",
"D. c #E37C00",
"F. c #E87305",
"G. c #FE7C0B",
"H. c #F77709",
"J. c #E86A14",
"K. c #F96815",
"L. c #EA7716",
"P. c #F77818",
"I. c #D45527",
"U. c #DD502E",
"Y. c #F74F2A",
"T. c #CE7327",
"R. c #FF7C23",
"E. c #FF7528",
"W. c #FE7A34",
"Q. c #EF6E2E",
"!. c #DB5D44",
"~. c #E96340",
"^. c #D58201",
"/. c #DA8803",
"(. c #D28B05",
"). c #EC8B00",
"_. c #E98905",
"`. c #F88507",
"'. c #EC9500",
"]. c #E39E01",
"[. c #EC9B01",
"{. c #E69505",
"}. c #F39B00",
"|. c #FB9708",
" X c #E88619",
".X c #FD8717",
"XX c #FE9C1A",
"oX c #F99716",
"OX c #D7B600",
"+X c #D8A605",
"@X c #ECA802",
"#X c #F5A402",
"$X c #FDA403",
"%X c #F3AC02",
"&X c #FEAB01",
"*X c #FFAA0C",
"=X c #FCA50B",
"-X c #EBB702",
";X c #FFB403",
":X c #F3BD00",
">X c #FEBB01",
",X c #FFB20C",
"<X c #FFBC0B",
"1X c #F5B604",
"2X c #FEAA13",
"3X c #FFA41A",
"4X c #FEAB1C",
"5X c #FAA515",
"6X c #FFB314",
"7X c #FFBD13",
"8X c #FFB41B",
"9X c #FDBA1B",
"0X c #EAAB16",
"qX c #D4912D",
"wX c #FE8627",
"eX c #FF932A",
"rX c #FF9925",
"tX c #FC8838",
"yX c #FE9834",
"uX c #E58826",
"iX c #FFA425",
"pX c #FEA32A",
"aX c #FFAD2C",
"sX c #FAAC23",
"dX c #FEB326",
"fX c #FDBA23",
"gX c #FFB52A",
"hX c #FFBC2D",
"jX c #FFAC33",
"kX c #FFA539",
"lX c #FFB432",
"zX c #FFB937",
"xX c #ECB630",
"cX c #FDC502",
"vX c #FDCC01",
"bX c #FFC40B",
"nX c #FFCA0C",
"mX c #F5C300",
"MX c #FED207",
"NX c #FFC314",
"BX c #FFC31A",
"VX c #FFCA1B",
"CX c #FFCE15",
"ZX c #FFD415",
"AX c #E9C800",
"SX c #F9E00F",
"DX c #FFC323",
"FX c #FFC829",
"GX c #FFC434",
"HX c #F2D320",
"JX c #FFAC43",
"KX c #FFA74A",
"LX c #FFB648",
"PX c #FFB956",
"IX c #FF9C68",
"UX c #FF9E5F",
/* pixels */
"`.A.{ J 3 s 1.`.wX/ n @.| C.|.`.[ j v W.P.3.1 % 2 G A.0.- I D t t g 1 - a S y..X",
"H.4.u w < F V.yXtX' E X.[ l.|._.[ v y W.P.8., & 2 ..u.{ = I U w r l 3 e J ) f.K.",
"Y.M 3 < 2 F L.rXR.( M 6.w.`.3X|.l.D 3 Q.uX&.& , q  .@.M 1 9 8 4 r l e 4 N o.a.Y.",
"N r e d C r.`.oXG.D D w.`.iXDX4XwXe.2 I.T.Z = w x #.#.x 3 7 ; * q f ; ; d l N E ",
"2 3 a K r._.*X=X`.<.G A.=X6X<X#XyXR.q ..:.p , v ! ! ^ Y i 3 < ; & > # $ = - 2 < ",
"H <.T. X=X%XcX;X`.<.<.H.=X&X%X%X8XeXt z b 3 w o.! x z j M v D p + O . . o & 0 V ",
"aXiXGX9XnXvXZXBXL.=.2..XoX).{.BX-XiXD h l < D U.o.w 2 4 H s.Q.( = o . . o ; N.tX",
"}./.].(.-X:XMX,XL.2.6.wX.Xk.b.FXOXfX[ h g , I.~.J < = = *.wXyX3., @ X # % 5 m.KX",
"p.p.4.3.x.#X;X2XF.q.k.aX[ [ C.oX1.s.!.< & 6 ;.M.-.- P e <.pXfXz.@ : ; & , C aX^.",
"o. ._ ' 7.[.,X2XP.g.g.zX] v 1.eX1.J.~.< = V T.kX8.- U w H aX=Xx.@ : : = < F kXz.",
"~ ~ T W 7.oX8X8X X8.z.zX` q G kX2.Z.Q.2 - C L.kX8., $.q *.hX=X/.* > * = < H jX*.",
"! ! R Q j.2XBX9XoXx.c.gX] q <.JX9.P.W.y 2 S L.eXr.< a 1 -.zXaXuX5 : = , 2 D JX-.",
"! R R _ v.,XcX;XsXoX@X6X9.b w.lXl.wXtXb u ] P.wXr.3 , < ;.jXLXN.6 = , y u ` kX7.",
") O.+.u._.;X>X|.zXhX*X*XB.1.).4Xv.P.wXG D 0.P.R.t.S - 6 g.oXKX8.4 2 q J ..6.lXg.",
"1.V..X`.@X%X#X).eXeX'.).B.0.|.*Xb._.iXB.Z.u.A.H.J.r.F ;.V.|.eX0.k j j o.a.s.dXh.",
">._.jXdX@X]./.j.1.m.j.j.u.e.|.2X^.'.FX|.`.A.B.u.l.J.tXwX).|.`.i._ @.Q _ d.S.fX>.",
"g.*X`.G.u.| ' D N r c X.C.^.AXSXOX-X<XDXFX0Xq.<.z.<X6X3X|.n.q.L.oXb.c.(.^.2XaXj.",
"z.hXF.y._ E k u 2 = < a _.;XCXmX:X>X*X3X4XXX1.H k.6X`..XXX*.H m.iX8XVXbX@X%XXXk.",
",.LX9.n c l 3 2 * * , 6 b.<XFX7XbXNX'._./.kX] k l.rX[ d.yXa a 1.dXBXCXMXnXNX|.g.",
"c.PX3.t t 3 & = * 9 8 6 {.NXVXBX7X9Xv.l.k.LX` r q.wXk | UXy r <.4X>X-X-XMXnX{.n.",
"v.PX4.y < @   @ 7 B r y =XZXZXCXDX2Xk.-.;.LX' r 5.W.t E IXb u <.4XcXcXmXmX@X/.b.",
"l.lX4.u 1 +   * f P z v $XvXvXZXBX2Xv.F ;.kX[ j s.W.h E UXH D 9.dX>XmXvXvX:X{.x.",
"/.iX| E d ; @ ; f %.T M [.cXbXbX%X=X3X8.z.jX5.( P.L.M / PX1.` H.gX[.@XvXnXNXsX^.",
"-XzXy.Q B 7 & ; f l t e @XZXVX'./.@XGX).'.hXu.4.wXB.M ) PX9.1.oX4X'.;XCX-X%XhXjX",
"FX{.;.-.e < i < # @ < &.OXMX8XH.u.q.0XHXAX-X(.x.aXL.W _ eX{.z.&X&X[.vX'.C.H.2XZX",
"3XoX8.G r w N y * 8 F k.-XZX4XA.| [ _.BXcXvX;X#XgXF.E } iXfX@XBX$X'.NXb.G G D.*X",
"H.H.w.[ j z Y...= &.Z.|.cXNXrX5.M v Z.|.;XbXbX6X3Xl.E } oXDX1X<X|.D.lX>.1 1 =.A.",
"0.d.Z.d.Y T Q.e.& :..X*X>X<XrXD q q [ H.).,X2X3XD.] Y _ F.rX#X_.C.w.KX&.+ % k | ",
"' 3.J.W.Q n K.k.& M.0X,XmX<XpXC & = D p.b.0X5X{.q.( R Q | K..XA.u.q.KX&.@ & q n ",
"/ ' J.W.Q c F.>.; uX9XmXcX>XkXV o + b p.M.xXsX XJ.+.^ ^ _ y.i.u.Z.l.KXZ ; 7 < a ",
"E ) Z.E.R Y L.;.2 yXDXCXcX;XkXV X o c #.F.dX0X^.P.d.#.O.} | 0.w.V.D.kXC 7 L = p ",
"R } d.d.T R wX;.p KXGXCX>X$XrXV O o T #.V.5X@Xz.V.u.+.+.d.J.k.v._.).lX6 e L & 0 ",
"q y X.Y.T T a.#.6 xXnX;XfXoXrXF O o 2 J X.R.,Xb.g.9.U.U.D.'.'.}.'.[.qX5 i B ; - ",
"& 4 N $.w u @.k Z hXfX&X9X{.pX&.o X = e a r.8X&X|.V.;.n.&XcX<XNX>X,XqX1 w l , , ",
"@ - d f - 5 6 , h.iXiX3X0X+XhX&.& # # * & V .X2XBX#X(.(.cX;X#X8XVXfXqX- t Y w 2 ",
"5 = = 7 * + = <  XH.K.P.{.].GX&.3 : o $ % 2 6.S.|.;X>X>X&Xh.*.L.3XpXT., z  .n h ",
"K 4 = * # % < a kXl.+.f.S.H.fXg.r 3 & > 8 2 c } u.|.FXgXJ.s w K r.M.:., z O.} | ",
"K.<.p & % 4 M ) LXq./ Q +.u.iXV.k t q K S 3 r M ` K.eX.XD q 2 4 { I.A < x Q d.E.",
"XXV.2.q < g p.S.KX1./ ) [ 4.oXG.( z z a.s.u 1 q S p.R.p.r 3 e , D $.g 1 x Q i.yX",
"vXv.y.W q b 5.G.yX3.' 2.r.:.G.G.| j x d.wX=.1 - s 6.R.u.q p A 2 u N d 2 x W 0..X"
};
