/* XPM */
static char *_576595415987[] = {
/* columns rows colors chars-per-pixel */
"40 40 91 1 ",
"  c #95A8AF",
". c #8FABB7",
"X c #8DABBB",
"o c #94A7B6",
"O c #94A9B4",
"+ c #9CABB5",
"@ c #95A6B9",
"# c #94AAB9",
"$ c #9CACBC",
"% c #9CB0B6",
"& c #95B2BC",
"* c #9CB2BC",
"= c #A0AEB7",
"- c #A1AEBB",
"; c #A2B3BD",
": c #A4B9BF",
"> c #ABBABF",
", c #8EA9C1",
"< c #92AAC4",
"1 c #9DB3C2",
"2 c #9CB4CB",
"3 c #9EBCCA",
"4 c #9BBED1",
"5 c #A2B4C2",
"6 c #AAB5C1",
"7 c #A5BBC5",
"8 c #AABBC4",
"9 c #A3B5CA",
"0 c #AEB7C8",
"q c #A4BCCB",
"w c #AABBCA",
"e c #B0B8C5",
"r c #B1BCC9",
"t c #A9BED1",
"y c #ADC3C6",
"u c #A7C5CF",
"i c #AEC3CB",
"p c #AFC8CC",
"a c #B3C3C6",
"s c #B3C4CD",
"d c #B9C3CC",
"f c #B7CBCD",
"g c #BACDCD",
"h c #ADC4D2",
"j c #A5C4D8",
"k c #ADC6DB",
"l c #B3C5D2",
"z c #B9C4D2",
"x c #B4CAD3",
"c c #BCCCD4",
"v c #B3C6D8",
"b c #B8C7DA",
"n c #B6CDDA",
"m c #BBCDDA",
"M c #BED1D6",
"N c #B6D1DC",
"B c #BDD3DC",
"V c #BED8DE",
"C c #B5CFE0",
"Z c #BCCFE2",
"A c #B7D7E4",
"S c #BDD5E3",
"D c #BBD9E3",
"F c #BBD5ED",
"G c #BFD9EA",
"H c #C1CCCF",
"J c #C2CDD5",
"K c #C8CCD6",
"L c #C2CEDA",
"P c #C2D3D6",
"I c #CBD5D7",
"U c #C4D4DC",
"Y c #CAD5DD",
"T c #C4D8DE",
"R c #C9D9DE",
"E c #D3DDDF",
"W c #D1D4DB",
"Q c #C4D5E3",
"! c #C9D6E2",
"~ c #C4D9E3",
"^ c #CDDDE4",
"/ c #C3D6EA",
"( c #C3D8E9",
") c #CCDEEA",
"_ c #D2DDE4",
"` c #D4DEEA",
"' c #CDE0E5",
"] c #CDE1E9",
"[ c #D1E0E6",
"{ c #D0E1EB",
"} c #CDE1F2",
/* pixels */
"uq;Y'cYYxcU7!Kz{1SlY>UEIa[YYxwmZMPu~xYYw",
"A&cT!8YHUvQi!LdL*ysc^[EWg'gU@mw9P'OUlcYL",
"u2x ZqsUnxL-!L!rPEcxxsmcg^HJU#QqTN8cnlmQ",
"n1BDk@YciYv!zYJJPg'UYYQUJJIYmQwS*5YYlwc!",
"mpYUY`iicm!!*cQ-#hceccccc~Pc&~7Q2NTYxuwq",
"l7_ccsVcwczmlTQQxSY!xws!78TBS1hx#DcUpxlh",
"QS~!Qw!w8!Sn!cQ6~UB~dcQqP^UUQ1<28sNuccYU",
"57h*5]m-cll*Lzc^'%s:QL}*YY8cZq,k'xh.ccU;",
"T'BUmQ~!$n+QmmYQ7nPc*QrYx5U-;L-Vq#x'NSO{",
"pyMULow~)*cMPmUUSiTUV~!LzQY^!)iQ]7%M1qcQ",
"IY7VQ5QQsY8UYYUvUc$Y8Ln1`YcczYmwuYBc338J",
"cgx7!J@YUcT'QQ;PVqUYzQ*(KLcg8)wL*c^sh4JP",
">cIYcP//UY151qXFVuYITdm!Q7$mQvd~cixTYYq!",
"^^EITTz5aJvnu2q3)&Uccc0!Vw1/!$wmlBUgYJ5b",
"YY__IIu*LY19jX$VyPMIJdYYUYlxQ51NdYmqdY1}",
"YcIaEgNlsLnm4X%~c8cT^UYcY^QqQQ#~YcQ#dd1h",
"Ycw1O/m7sQmw%lY!*hQh!!1tacPcYJ`mSNYYMwlm",
"PaQQmShtmll)NVwlnnh7c01GJcc8LYccxOYR7coZ",
"Q)Qi/1!0VUYmJJ<2xwVS)hqkYaJJhnLQ'p[as)mQ",
"*&pSn7!5%Q;mYHF2yxQ%OqXS_YH_77>!T%PUm8J!",
"TT^8Lc_8mYxc1tmU!*wSJY9FwmQYhN_WUlUiM7d^",
"NUM7scYcYzcUSqlmm!7mY_hq5mc8~8W_'~MUNhU-",
"o~Yglh_Y^*1ls8c!ppcJccllUYsQcwz01wTVsQF9",
"5lIJwveJs~m~sQcshQ6UsM~qYcmpY!Q!~Qg8~q9/",
"lYJcBycPN@sU1/q1yg!QxpYTic8cL;*}sYlcdQYP",
"~dccccUQ1Q^Pm@bQVUY;7VUUQUm!Lcp6~8mvc!^d",
"U7sx!zm1QtS<mY!JgUc!mlm7wDcTccQQcpIgUxxh",
"nqhlYl5qUiS#lmJ!UUdJ~*(5$h6JYU;)cMggYMnq",
"csl8mc~1mcmBJOY[8ScYN8!N$nAuYKC9M5Tccfdc",
"YY!b^dlm*SiUccRc8TUJ8Q;m5Q&SJ!h3~7UUclcT",
"mwO~Rs7c!r8MmmcqYUYJ8YYUQUcgm5[U7c$~7Ncx",
"lm1QRUTy!LR_sbbw^aYY`PcMcYxINncPQU]5QwQU",
"ccUU]8YYxzLcz~Ymfagya_tvULJcQ7v/xMc_UUUY",
"[dYcU~JYBvQOvvcYggM'YJ($KJHcQm#/c7sPYQ;Q",
"BUMp_Tww)JUYdYQ0YIsMcY~lB7llSYhm'xUUM;cm",
"cU.n_:~(a!UJYYQcIYcccLe!m7sQUw11*:s]Pc6Y",
"cO_P_JY!X3sYwlmQJYYMcUJM1hS9mmL_TM8Pc!JY",
"UiYaIIQ6uAd!)mwcIYm*5'dUQ7~@m58bYPYQYY!!",
"Us^B^8cQx;*DQcY!PRcRRRYT`YQsYJKWQQUcQ!Qr",
"V7sc^-YUmUS%Jr!_gRcYgUR!zYmQEUWYU8:mlL!5"
};
