/* XPM */
static char *_576595388533[] = {
/* columns rows colors chars-per-pixel */
"40 40 67 1 ",
"  c #020001",
". c #0B0000",
"X c #140101",
"o c #1B0001",
"O c #230100",
"+ c #2C0101",
"@ c #330401",
"# c #390700",
"$ c #360A02",
"% c #3B0B01",
"& c #3F1000",
"* c #410D00",
"= c #441301",
"- c #4A1501",
"; c #4D1A01",
": c #531C01",
"> c #5A1F01",
", c #572001",
"< c #5D2200",
"1 c #632501",
"2 c #6A2600",
"3 c #642901",
"4 c #6B2A01",
"5 c #712F01",
"6 c #753101",
"7 c #7B3400",
"8 c #813600",
"9 c #843A00",
"0 c #893E01",
"q c #864100",
"w c #8C4201",
"e c #924600",
"r c #944B01",
"t c #9B4E00",
"y c #9B5301",
"u c #A15502",
"i c #A55A01",
"p c #A95E00",
"a c #AC6301",
"s c #B56C01",
"d c #B96F00",
"f c #B57001",
"g c #BB7401",
"h c #BE7A01",
"j c #C27C01",
"k c #C87F00",
"l c #C68301",
"z c #C98600",
"x c #D18F00",
"c c #D49400",
"v c #DA9C01",
"b c #DDA101",
"n c #E4AB00",
"m c #E5B001",
"M c #EBB600",
"N c #EBB801",
"B c #F4BF00",
"V c #F3C400",
"C c #F8C601",
"Z c #F6CB00",
"A c #FACB01",
"S c #FCD301",
"D c #FCD801",
"F c #FEE400",
"G c #FEEB00",
"H c #FEF400",
"J c #FEFB01",
/* pixels */
"oXoOoOO++$=,48rgnJcq:$++@*<iJf4*OOooXXXo",
"ooooooO++@%=;<7rjGb6*OXXXo+:uHj1%OoXooXo",
"oXXXXoo+++@%=;,4rvS9*o.  .XO;yGh1%OoXXoX",
"X.....Xo++@@$%%-<wZg:O..  .X+-eFj1$+XooX",
"X.   ..XoO@@+++++-wJw$X    ..O=qDl1$OoXX",
".      ..oO+OoXXXO%9J4OX     XO%8Cj1$OX.",
"        .XooX.    X@qS1O.     .o$7Zj<+X.",
"          ...      .+8C:o.     .o$6Sp*o ",
"                    .+yc=X.      X%rA<o.",
"                     .*cr@..      o>Vq+.",
"                      o4J3O .     X$ss#.",
"                      X$fh&X      .+em-X",
"                       O1J8+X     .+6J1O",
".                      X&sn<+X. . .+4Gw+",
"O.        .            X+5Ch,+oX.oo$7Vd-",
"-OX.      XX..         XO-wDz6=@@@*<eNb5",
"w>$+OoXX.XXoX..       Xoo@;eMVp7327rlAFk",
"Sxp9<-$@+OoooXX.   ..XoooO@-8zJCcxcnDJHJ",
"xvNGGvp6;&+oooXX...XXooOOoO$-5icCGHJJHAv",
"73149aNGs3&+oooXXX.XXooOOOO+@-19ygzvSJna",
";$+O@=<iJf4%+oooXXXXooooOo+O+$->48egmJc9",
"%OXXXo+;yHj1%OoooXXoooooooO++@$=;<6rlGb6",
"%oX. .X+-tGj1&OooXXXXXXXXoOO+@@$*;>4evA0",
":o.   .XO-eFj1$OXooXXX.X..XOO@@@%%*-,wAg",
"w$.    X.O=wDl1$OXXX...   .Xo++@+++++;wJ",
"J3+..    Xo%7Aj1$OX..       Xo++ooX.Xo&w",
"0S3O.     .X$7Cj1+X.         XooX.   .X@",
"+7A:O      .o$7Si&o           ...      .",
".+yc=X.      X$rA<o.                    ",
" .%cr@X      .o>V9+                     ",
"  o4J1o.      X$ss$.                    ",
"  .$fj*X.     .+wN=X                    ",
"   O1J7@.    ..+5J<O                    ",
"   X=sb<+X   .X+5Gw+X                   ",
"   X@4Cj,+oXXXO%6Vg-o.        .         ",
"  ..O-wSz5-$+@=<eNv6=+X.      XXX       ",
" .XXO@:wNVp6346rlAFlw,$+ooX.XXoXXX.     ",
".XooOO@-7lJAvxcmSJHJSxp03-$@+oOoXX...   ",
"XXoooo+$-6ucCGJJJHAvxvMGGva5:%+OooXXX...",
"XooOOOOO$=18udlvSJna73147aNGs1*+oooXXXXX"
};
